Coordinates
version=1
nRows=8
nColumns=46
inDegrees=yes

Units are S.I. units (second, meters, Newtons, ...)
Angles are in degrees.

endheader
time	pelvis_tilt	pelvis_list	pelvis_rotation	pelvis_tx	pelvis_ty	pelvis_tz	bb_angle	bb_tx	bb_ty	bb_tz	hip_flexion_r	hip_adduction_r	hip_rotation_r	knee_angle_r	knee_angle_r_beta	ankle_angle_r	subtalar_angle_r	mtp_angle_r	crank_angle_r	hip_flexion_l	hip_adduction_l	hip_rotation_l	knee_angle_l	knee_angle_l_beta	ankle_angle_l	subtalar_angle_l	mtp_angle_l	crank_angle_l	lumbar_extension	lumbar_bending	lumbar_rotation	arm_flex_r	arm_add_r	arm_rot_r	elbow_flex_r	pro_sup_r	wrist_flex_r	wrist_dev_r	arm_flex_l	arm_add_l	arm_rot_l	elbow_flex_l	pro_sup_l	wrist_flex_l	wrist_dev_l
      7.50000000	    -25.37120005	      7.78904084	     11.74377903	      0.41796214	      1.16870974	     -0.25972298	      0.00000000	      0.50000000	      0.00000000	      0.25000000	     18.40366531	    -14.74161021	     -1.87233797	     25.23911253	      0.44050561	    -12.82281395	     -3.50305381	      0.00000000	      0.00000000	     75.14750509	      8.70576305	     -1.67326981	    105.59005535	      1.84289412	     -6.40702096	     -8.54855348	      0.00000000	      0.00000000	    -59.16356639	     -0.68665962	     -3.60953821	     18.18464071	    -13.44908218	     -2.41641184	    103.74362062	     51.39664808	      0.00000000	      0.00000000	     37.73904272	     -9.16617904	     24.39885319	     83.79521166	     56.25065485	      0.00000000	      0.00000000
      7.50500000	    -25.45565058	      7.58113902	     12.43989449	      0.41770205	      1.17053033	     -0.26010804	      0.00000000	      0.50000000	      0.00000000	      0.25000000	     18.94371599	    -14.68131300	     -2.08544256	     27.09722854	      0.47293586	    -13.90663298	     -4.42238618	      0.00000000	      0.00000000	     75.04938313	      9.23046446	     -1.36114265	    104.59510450	      1.82552895	     -4.33970622	     -8.13629232	      0.00000000	      0.00000000	    -59.50660440	     -0.14658647	     -3.66473754	     18.30225263	    -13.33586654	     -2.71602856	    103.90580388	     51.40684279	      0.00000000	      0.00000000	     38.04685613	     -8.95082239	     24.44764330	     83.99083356	     56.28300406	      0.00000000	      0.00000000
      7.51000000	    -25.55639018	      7.43449009	     13.14651910	      0.41734959	      1.17274089	     -0.26074971	      0.00000000	      0.50000000	      0.00000000	      0.25000000	     19.64081261	    -14.70686953	     -2.17734793	     29.11173239	      0.50809558	    -15.23368669	     -5.36065314	      0.00000000	      0.00000000	     74.54423107	     10.15975227	     -0.98593123	    103.16478707	      1.80056521	     -2.05243046	     -8.65239298	      0.00000000	      0.00000000	    -59.85558974	      0.33882225	     -3.72159568	     18.41816264	    -13.26877028	     -3.12527992	    104.11941987	     51.32513026	      0.00000000	      0.00000000	     38.55222480	     -8.59142485	     22.41909904	     85.82871561	     56.08837550	      0.00000000	      0.00000000
      7.51500000	    -25.61126864	      7.22428424	     13.80823285	      0.41698896	      1.17503733	     -0.26136597	      0.00000000	      0.50000000	      0.00000000	      0.25000000	     20.54067652	    -14.71378566	     -2.25836830	     31.42414010	      0.54845471	    -16.72615538	     -5.97513196	      0.00000000	      0.00000000	     73.97292885	     10.73751314	     -0.63500149	    101.66028227	      1.77430664	      0.10326539	     -8.83160332	      0.00000000	      0.00000000	    -60.24482441	      0.93849390	     -3.83816279	     18.79342758	    -13.22307464	     -3.24148841	    104.17500130	     51.32262753	      0.00000000	      0.00000000	     38.89066145	     -8.42677649	     22.37575306	     86.06622858	     56.11831896	      0.00000000	      0.00000000
      7.52000000	    -25.77464118	      6.94028979	     14.40151086	      0.41660470	      1.17722839	     -0.26167340	      0.00000000	      0.50000000	      0.00000000	      0.25000000	     21.65754395	    -14.53210214	     -1.93778583	     33.70048400	      0.58818441	    -18.69382836	     -7.07696533	      0.00000000	      0.00000000	     73.34858752	     10.97793933	     -0.27500304	    100.05411732	      1.74627378	      3.17044171	     -7.50556752	      0.00000000	      0.00000000	    -60.51705883	      1.53020184	     -3.96798455	     19.14330796	    -12.82823623	     -3.59223968	    104.36802410	     51.33625261	      0.00000000	      0.00000000	     38.92365013	     -8.59778251	     21.34300665	     87.08060615	     56.16192467	      0.00000000	      0.00000000
      7.52500000	    -25.76516787	      6.75252427	     14.95395291	      0.41630924	      1.17954101	     -0.26248498	      0.00000000	      0.50000000	      0.00000000	      0.25000000	     22.76268609	    -14.57869189	     -1.80502502	     36.21040370	      0.63199077	    -20.51612101	     -7.30456790	      0.00000000	      0.00000000	     72.39008042	     11.65803621	      0.23135243	     98.30511005	      1.71574784	      5.68590958	     -7.75686478	      0.00000000	      0.00000000	    -60.92170809	      2.07993008	     -4.21110512	     19.56852450	    -12.79013809	     -3.64794124	    104.41112545	     51.33720668	      0.00000000	      0.00000000	     39.21599732	     -8.50812578	     21.24071460	     87.29532016	     56.18217794	      0.00000000	      0.00000000
      7.53000000	    -25.75525983	      6.69753467	     15.44347191	      0.41643054	      1.18198482	     -0.26285310	      0.00000000	      0.50000000	      0.00000000	      0.25000000	     23.89676603	    -14.65893015	     -1.42136574	     38.64582880	      0.67449695	    -22.81348589	     -7.84922062	      0.00000000	      0.00000000	     71.17619808	     12.23019273	      0.71148965	     96.33971638	      1.68144525	      8.80878251	     -6.59248794	      0.00000000	      0.00000000	    -61.34510507	      2.56233074	     -4.86777952	     20.16662138	    -12.19816347	     -3.53034149	    104.34251971	     51.35483367	      0.00000000	      0.00000000	     39.17949164	     -8.93499401	     20.76595273	     87.99492801	     56.24298352	      0.00000000	      0.00000000
      7.53500000	    -25.66474159	      6.46739157	     15.90900472	      0.41678480	      1.18421772	     -0.26325230	      0.00000000	      0.50000000	      0.00000000	      0.25000000	     25.01082370	    -14.55820243	     -1.09683144	     41.03113443	      0.71612839	    -25.22725989	     -7.90281272	      0.00000000	      0.00000000	     70.03712728	     12.36285540	      1.10199068	     94.40635205	      1.64770168	     11.04532607	     -5.77426768	      0.00000000	      0.00000000	    -61.77467413	      3.11857867	     -5.14731989	     20.63797798	    -11.99723804	     -3.35368697	    104.27932049	     51.36936407	      0.00000000	      0.00000000	     39.30150955	     -9.10191244	     20.48664850	     88.37302294	     56.26986919	      0.00000000	      0.00000000
